<svg width="35" height="27" viewBox="0 0 35 27" fill="none" xmlns="http://www.w3.org/2000/svg">
<path fill-rule="evenodd" clip-rule="evenodd" d="M21.875 13.8719C23.716 13.8719 25.2084 12.3795 25.2084 10.5386C25.2084 8.69761 23.716 7.20521 21.875 7.20521L21.2446 7.20521L21.2446 6.57485C21.2446 4.73388 19.7522 3.24149 17.9112 3.24149C16.0703 3.24149 14.5779 4.73388 14.5779 6.57484L14.5779 13.8649L14.5849 13.8649L14.5849 13.8719L21.875 13.8719Z" fill="#4E4E4E"/>
<path fill-rule="evenodd" clip-rule="evenodd" d="M6.37474 14.7779C4.53378 14.7779 3.04138 16.2703 3.04138 18.1113C3.04138 19.9523 4.53378 21.4447 6.37474 21.4447L7.00516 21.4447L7.00516 22.075C7.00516 23.916 8.49756 25.4084 10.3385 25.4084C12.1795 25.4084 13.6719 23.916 13.6719 22.075L13.6719 14.7849L13.6648 14.7849L13.6648 14.7779L6.37474 14.7779Z" fill="#4E4E4E"/>
<mask id="path-3-inside-1" fill="white">
<path fill-rule="evenodd" clip-rule="evenodd" d="M13.6718 6.57485C13.6718 4.73388 12.1794 3.24149 10.3384 3.24149C8.49747 3.24149 7.00508 4.73388 7.00508 6.57484V7.20521H6.37474C4.53378 7.20521 3.04138 8.6976 3.04138 10.5386C3.04138 12.3795 4.53378 13.8719 6.37474 13.8719H13.6648V13.8649H13.6718V6.57485Z"/>
</mask>
<path d="M7.00508 7.20521V8.20521H8.00508V7.20521H7.00508ZM3.04138 10.5386H4.04138H3.04138ZM13.6648 13.8719V14.8719H14.6648V13.8719H13.6648ZM13.6648 13.8649V12.8649H12.6648V13.8649H13.6648ZM13.6718 13.8649V14.8649H14.6718V13.8649H13.6718ZM10.3384 4.24149C11.6271 4.24149 12.6718 5.28617 12.6718 6.57485H14.6718C14.6718 4.1816 12.7317 2.24149 10.3384 2.24149V4.24149ZM8.00508 6.57484C8.00508 5.28616 9.04976 4.24149 10.3384 4.24149V2.24149C7.94519 2.24149 6.00508 4.18159 6.00508 6.57484H8.00508ZM8.00508 7.20521V6.57484H6.00508V7.20521H8.00508ZM6.37474 8.20521H7.00508V6.20521H6.37474V8.20521ZM4.04138 10.5386C4.04138 9.24989 5.08606 8.20521 6.37474 8.20521V6.20521C3.98149 6.20521 2.04138 8.14532 2.04138 10.5386H4.04138ZM6.37474 12.8719C5.08606 12.8719 4.04138 11.8272 4.04138 10.5386H2.04138C2.04138 12.9318 3.98149 14.8719 6.37474 14.8719V12.8719ZM13.6648 12.8719H6.37474V14.8719H13.6648V12.8719ZM12.6648 13.8649V13.8719H14.6648V13.8649H12.6648ZM13.6718 12.8649H13.6648V14.8649H13.6718V12.8649ZM12.6718 6.57485V13.8649H14.6718V6.57485H12.6718Z" fill="#4E4E4E" mask="url(#path-3-inside-1)"/>
<mask id="path-5-inside-2" fill="white">
<path fill-rule="evenodd" clip-rule="evenodd" d="M14.5779 22.075C14.5779 23.916 16.0702 25.4084 17.9112 25.4084C19.7522 25.4084 21.2446 23.916 21.2446 22.075L21.2446 21.4447L21.875 21.4447C23.716 21.4447 25.2084 19.9523 25.2084 18.1113C25.2084 16.2703 23.716 14.7779 21.875 14.7779L14.5849 14.7779L14.5849 14.7849L14.5779 14.7849L14.5779 22.075Z"/>
</mask>
<path d="M17.9112 25.4084L17.9112 24.4084L17.9112 25.4084ZM21.2446 21.4447L21.2446 20.4447L20.2446 20.4447L20.2446 21.4447L21.2446 21.4447ZM21.875 21.4447L21.875 20.4447L21.875 21.4447ZM21.875 14.7779L21.875 13.7779L21.875 14.7779ZM14.5849 14.7779L14.5849 13.7779L13.5849 13.7779L13.5849 14.7779L14.5849 14.7779ZM14.5849 14.7849L14.5849 15.7849L15.5849 15.7849L15.5849 14.7849L14.5849 14.7849ZM14.5779 14.7849L14.5779 13.7849L13.5779 13.7849L13.5779 14.7849L14.5779 14.7849ZM17.9112 24.4084C16.6225 24.4084 15.5779 23.3637 15.5779 22.075L13.5779 22.075C13.5779 24.4683 15.518 26.4084 17.9112 26.4084L17.9112 24.4084ZM20.2446 22.075C20.2446 23.3637 19.1999 24.4084 17.9112 24.4084L17.9112 26.4084C20.3045 26.4084 22.2446 24.4683 22.2446 22.075L20.2446 22.075ZM20.2446 21.4447L20.2446 22.075L22.2446 22.075L22.2446 21.4447L20.2446 21.4447ZM21.875 20.4447L21.2446 20.4447L21.2446 22.4447L21.875 22.4447L21.875 20.4447ZM24.2084 18.1113C24.2084 19.4 23.1637 20.4447 21.875 20.4447L21.875 22.4447C24.2683 22.4447 26.2084 20.5046 26.2084 18.1113L24.2084 18.1113ZM21.875 15.7779C23.1637 15.7779 24.2084 16.8226 24.2084 18.1113L26.2084 18.1113C26.2084 15.7181 24.2683 13.7779 21.875 13.7779L21.875 15.7779ZM14.5849 15.7779L21.875 15.7779L21.875 13.7779L14.5849 13.7779L14.5849 15.7779ZM15.5849 14.7849L15.5849 14.7779L13.5849 14.7779L13.5849 14.7849L15.5849 14.7849ZM14.5779 15.7849L14.5849 15.7849L14.5849 13.7849L14.5779 13.7849L14.5779 15.7849ZM15.5779 22.075L15.5779 14.7849L13.5779 14.7849L13.5779 22.075L15.5779 22.075Z" fill="#4E4E4E" mask="url(#path-5-inside-2)"/>
<path d="M3.46928 27C4.37274 27 4.91482 26.9027 5.38462 26.7404L4.91482 24.4691C4.55343 24.534 4.40888 24.534 4.22819 24.534C3.72225 24.534 3.28859 24.1771 3.28859 23.2685V0.75H0V23.0739C0 25.5723 1.01187 27 3.46928 27Z" fill="#4E4E4E"/>
<path d="M31.7948 26.3269C32.8525 26.3269 34.0064 26.0042 34.9999 25.6814L34.423 23.4865C33.8461 23.7125 33.0448 23.9384 32.4358 23.9384C30.4166 23.9384 29.7435 22.7119 29.7435 20.5493V10.7693H34.4551V8.38075H29.7435V3.44232H27.3076L26.9551 8.38075L24.2307 8.54214V10.7693H26.8269V20.4847C26.8269 23.9707 28.0769 26.3269 31.7948 26.3269Z" fill="#4E4E4E"/>
</svg>
