<svg width="26" height="26" viewBox="0 0 26 26" fill="none" xmlns="http://www.w3.org/2000/svg">
<path fill-rule="evenodd" clip-rule="evenodd" d="M21.5904 12.1866C23.7009 12.1866 25.4117 10.4757 25.4117 8.36528C25.4117 6.25483 23.7009 4.54397 21.5904 4.54397L20.8678 4.54397L20.8678 3.82131C20.8678 1.71086 19.1569 -1.41042e-06 17.0465 -2.23663e-06C14.936 -3.06284e-06 13.2252 1.71085 13.2252 3.8213L13.2252 12.1785L13.2332 12.1785L13.2332 12.1866L21.5904 12.1866Z" fill="#A527E0"/>
<path fill-rule="evenodd" clip-rule="evenodd" d="M3.82132 13.2252C1.71087 13.2252 8.12057e-06 14.936 6.70989e-06 17.0465C5.29921e-06 19.1569 1.71086 20.8678 3.82131 20.8678L4.54399 20.8678L4.54399 21.5905C4.54399 23.7009 6.25484 25.4118 8.36529 25.4118C10.4757 25.4118 12.1866 23.7009 12.1866 21.5905L12.1866 13.2332L12.1785 13.2332L12.1785 13.2252L3.82132 13.2252Z" fill="#A527E0"/>
<mask id="path-3-inside-1" fill="white">
<path fill-rule="evenodd" clip-rule="evenodd" d="M12.1866 3.82131C12.1866 1.71086 10.4757 -2.82136e-07 8.36528 0C6.25483 2.82136e-07 4.54397 1.71085 4.54397 3.8213V4.54395H3.82131C1.71086 4.54395 0 6.25481 0 8.36526C0 10.4757 1.71085 12.1866 3.8213 12.1866H12.1785V12.1785H12.1866V3.82131Z"/>
</mask>
<path d="M4.54397 4.54395V5.54395H5.54397V4.54395H4.54397ZM12.1785 12.1866V13.1866H13.1785V12.1866H12.1785ZM12.1785 12.1785V11.1785H11.1785V12.1785H12.1785ZM12.1866 12.1785V13.1785H13.1866V12.1785H12.1866ZM8.36528 1C9.92344 1 11.1866 2.26314 11.1866 3.82131H13.1866C13.1866 1.15857 11.028 -1 8.36528 -1V1ZM5.54397 3.8213C5.54397 2.26314 6.80711 1 8.36528 1V-1C5.70255 -1 3.54397 1.15857 3.54397 3.8213H5.54397ZM5.54397 4.54395V3.8213H3.54397V4.54395H5.54397ZM3.82131 5.54395H4.54397V3.54395H3.82131V5.54395ZM1 8.36526C1 6.8071 2.26314 5.54395 3.82131 5.54395V3.54395C1.15857 3.54395 -1 5.70253 -1 8.36526H1ZM3.8213 11.1866C2.26314 11.1866 1 9.92342 1 8.36526H-1C-1 11.028 1.15857 13.1866 3.8213 13.1866V11.1866ZM12.1785 11.1866H3.8213V13.1866H12.1785V11.1866ZM11.1785 12.1785V12.1866H13.1785V12.1785H11.1785ZM12.1866 11.1785H12.1785V13.1785H12.1866V11.1785ZM11.1866 3.82131V12.1785H13.1866V3.82131H11.1866Z" fill="#A527E0" mask="url(#path-3-inside-1)"/>
<mask id="path-5-inside-2" fill="white">
<path fill-rule="evenodd" clip-rule="evenodd" d="M13.2252 21.5905C13.2252 23.7009 14.936 25.4118 17.0465 25.4118C19.1569 25.4118 20.8678 23.7009 20.8678 21.5905L20.8678 20.8678L21.5904 20.8678C23.7009 20.8678 25.4117 19.157 25.4117 17.0465C25.4117 14.9361 23.7009 13.2252 21.5904 13.2252L13.2332 13.2252L13.2332 13.2332L13.2252 13.2332L13.2252 21.5905Z"/>
</mask>
<path d="M20.8678 20.8678L20.8678 19.8678L19.8678 19.8678L19.8678 20.8678L20.8678 20.8678ZM13.2332 13.2252L13.2332 12.2252L12.2332 12.2252L12.2332 13.2252L13.2332 13.2252ZM13.2332 13.2332L13.2332 14.2332L14.2332 14.2332L14.2332 13.2332L13.2332 13.2332ZM13.2252 13.2332L13.2252 12.2332L12.2252 12.2332L12.2252 13.2332L13.2252 13.2332ZM17.0465 24.4118C15.4883 24.4118 14.2252 23.1486 14.2252 21.5905L12.2252 21.5905C12.2252 24.2532 14.3837 26.4118 17.0465 26.4118L17.0465 24.4118ZM19.8678 21.5905C19.8678 23.1486 18.6046 24.4118 17.0465 24.4118L17.0465 26.4118C19.7092 26.4118 21.8678 24.2532 21.8678 21.5905L19.8678 21.5905ZM19.8678 20.8678L19.8678 21.5905L21.8678 21.5905L21.8678 20.8678L19.8678 20.8678ZM21.5904 19.8678L20.8678 19.8678L20.8678 21.8678L21.5904 21.8678L21.5904 19.8678ZM24.4117 17.0465C24.4117 18.6047 23.1486 19.8678 21.5904 19.8678L21.5904 21.8678C24.2532 21.8678 26.4117 19.7092 26.4117 17.0465L24.4117 17.0465ZM21.5904 14.2252C23.1486 14.2252 24.4117 15.4883 24.4117 17.0465L26.4117 17.0465C26.4117 14.3838 24.2532 12.2252 21.5904 12.2252L21.5904 14.2252ZM13.2332 14.2252L21.5904 14.2252L21.5904 12.2252L13.2332 12.2252L13.2332 14.2252ZM14.2332 13.2332L14.2332 13.2252L12.2332 13.2252L12.2332 13.2332L14.2332 13.2332ZM13.2252 14.2332L13.2332 14.2332L13.2332 12.2332L13.2252 12.2332L13.2252 14.2332ZM14.2252 21.5905L14.2252 13.2332L12.2252 13.2332L12.2252 21.5905L14.2252 21.5905Z" fill="#A527E0" mask="url(#path-5-inside-2)"/>
</svg>
