<svg width="26" height="26" viewBox="0 0 26 26" fill="none" xmlns="http://www.w3.org/2000/svg">
<path fill-rule="evenodd" clip-rule="evenodd" d="M22.0022 12.1866C24.1126 12.1866 25.8235 10.4757 25.8235 8.36528C25.8235 6.25483 24.1126 4.54397 22.0022 4.54397L21.2795 4.54397L21.2795 3.82131C21.2795 1.71086 19.5687 -1.41042e-06 17.4582 -2.23663e-06C15.3478 -3.06284e-06 13.6369 1.71085 13.6369 3.8213L13.6369 12.1785L13.6449 12.1785L13.6449 12.1866L22.0022 12.1866Z" fill="#EC9228"/>
<path fill-rule="evenodd" clip-rule="evenodd" d="M4.23306 13.2252C2.12261 13.2252 0.411751 14.936 0.41175 17.0465C0.411748 19.1569 2.1226 20.8678 4.23305 20.8678L4.95573 20.8678L4.95573 21.5905C4.95573 23.7009 6.66659 25.4118 8.77704 25.4118C10.8875 25.4118 12.5983 23.7009 12.5983 21.5905L12.5983 13.2332L12.5903 13.2332L12.5903 13.2252L4.23306 13.2252Z" fill="#EC9228"/>
<mask id="path-3-inside-1" fill="white">
<path fill-rule="evenodd" clip-rule="evenodd" d="M12.5983 3.82131C12.5983 1.71086 10.8875 -2.82136e-07 8.77702 0C6.66657 2.82136e-07 4.95572 1.71085 4.95572 3.8213V4.54395H4.23305C2.1226 4.54395 0.411743 6.25481 0.411743 8.36526C0.411743 10.4757 2.1226 12.1866 4.23305 12.1866H12.5903V12.1785H12.5983V3.82131Z"/>
</mask>
<path d="M4.95572 4.54395V5.54395H5.95572V4.54395H4.95572ZM0.411743 8.36526H-0.588257H0.411743ZM12.5903 12.1866V13.1866H13.5903V12.1866H12.5903ZM12.5903 12.1785V11.1785H11.5903V12.1785H12.5903ZM12.5983 12.1785V13.1785H13.5983V12.1785H12.5983ZM8.77702 1C10.3352 1 11.5983 2.26314 11.5983 3.82131H13.5983C13.5983 1.15857 11.4398 -1 8.77702 -1V1ZM5.95572 3.8213C5.95572 2.26314 7.21886 1 8.77702 1V-1C6.11429 -1 3.95572 1.15857 3.95572 3.8213H5.95572ZM5.95572 4.54395V3.8213H3.95572V4.54395H5.95572ZM4.23305 5.54395H4.95572V3.54395H4.23305V5.54395ZM1.41174 8.36526C1.41174 6.8071 2.67489 5.54395 4.23305 5.54395V3.54395C1.57032 3.54395 -0.588256 5.70252 -0.588257 8.36526H1.41174ZM4.23305 11.1866C2.67488 11.1866 1.41174 9.92342 1.41174 8.36526H-0.588257C-0.588257 11.028 1.57031 13.1866 4.23305 13.1866V11.1866ZM12.5903 11.1866H4.23305V13.1866H12.5903V11.1866ZM11.5903 12.1785V12.1866H13.5903V12.1785H11.5903ZM12.5983 11.1785H12.5903V13.1785H12.5983V11.1785ZM11.5983 3.82131V12.1785H13.5983V3.82131H11.5983Z" fill="#EC9228" mask="url(#path-3-inside-1)"/>
<mask id="path-5-inside-2" fill="white">
<path fill-rule="evenodd" clip-rule="evenodd" d="M13.6369 21.5905C13.6369 23.7009 15.3478 25.4118 17.4582 25.4118C19.5687 25.4118 21.2795 23.7009 21.2795 21.5905L21.2795 20.8678L22.0022 20.8678C24.1126 20.8678 25.8235 19.157 25.8235 17.0465C25.8235 14.9361 24.1126 13.2252 22.0022 13.2252L13.645 13.2252L13.645 13.2332L13.6369 13.2332L13.6369 21.5905Z"/>
</mask>
<path d="M21.2795 20.8678L21.2795 19.8678L20.2795 19.8678L20.2795 20.8678L21.2795 20.8678ZM22.0022 13.2252L22.0022 12.2252L22.0022 13.2252ZM13.645 13.2252L13.645 12.2252L12.645 12.2252L12.645 13.2252L13.645 13.2252ZM13.645 13.2332L13.645 14.2332L14.645 14.2332L14.645 13.2332L13.645 13.2332ZM13.6369 13.2332L13.6369 12.2332L12.6369 12.2332L12.6369 13.2332L13.6369 13.2332ZM17.4582 24.4118C15.9 24.4118 14.6369 23.1486 14.6369 21.5905L12.6369 21.5905C12.6369 24.2532 14.7955 26.4118 17.4582 26.4118L17.4582 24.4118ZM20.2795 21.5905C20.2795 23.1486 19.0164 24.4118 17.4582 24.4118L17.4582 26.4118C20.1209 26.4118 22.2795 24.2532 22.2795 21.5905L20.2795 21.5905ZM20.2795 20.8678L20.2795 21.5905L22.2795 21.5905L22.2795 20.8678L20.2795 20.8678ZM22.0022 19.8678L21.2795 19.8678L21.2795 21.8678L22.0022 21.8678L22.0022 19.8678ZM24.8235 17.0465C24.8235 18.6047 23.5603 19.8678 22.0022 19.8678L22.0022 21.8678C24.6649 21.8678 26.8235 19.7092 26.8235 17.0465L24.8235 17.0465ZM22.0022 14.2252C23.5603 14.2252 24.8235 15.4883 24.8235 17.0465L26.8235 17.0465C26.8235 14.3838 24.6649 12.2252 22.0022 12.2252L22.0022 14.2252ZM13.645 14.2252L22.0022 14.2252L22.0022 12.2252L13.645 12.2252L13.645 14.2252ZM14.645 13.2332L14.645 13.2252L12.645 13.2252L12.645 13.2332L14.645 13.2332ZM13.6369 14.2332L13.645 14.2332L13.645 12.2332L13.6369 12.2332L13.6369 14.2332ZM14.6369 21.5905L14.6369 13.2332L12.6369 13.2332L12.6369 21.5905L14.6369 21.5905Z" fill="#EC9228" mask="url(#path-5-inside-2)"/>
</svg>
