<svg width="27" height="26" viewBox="0 0 27 26" fill="none" xmlns="http://www.w3.org/2000/svg">
<path fill-rule="evenodd" clip-rule="evenodd" d="M22.4139 12.1866C24.5244 12.1866 26.2352 10.4757 26.2352 8.36528C26.2352 6.25483 24.5244 4.54397 22.4139 4.54397L21.6913 4.54397L21.6913 3.82131C21.6913 1.71086 19.9804 -1.41042e-06 17.8699 -2.23663e-06C15.7595 -3.06284e-06 14.0486 1.71085 14.0486 3.8213L14.0486 12.1785L14.0567 12.1785L14.0567 12.1866L22.4139 12.1866Z" fill="white"/>
<path fill-rule="evenodd" clip-rule="evenodd" d="M4.6448 13.2252C2.53435 13.2252 0.823494 14.936 0.823493 17.0465C0.823492 19.1569 2.53434 20.8678 4.64479 20.8678L5.36747 20.8678L5.36747 21.5905C5.36747 23.7009 7.07833 25.4118 9.18878 25.4118C11.2992 25.4118 13.0101 23.7009 13.0101 21.5905L13.0101 13.2332L13.002 13.2332L13.002 13.2252L4.6448 13.2252Z" fill="white"/>
<mask id="path-3-inside-1" fill="white">
<path fill-rule="evenodd" clip-rule="evenodd" d="M13.0101 3.82131C13.0101 1.71086 11.2992 -2.82136e-07 9.18876 0C7.07832 2.82136e-07 5.36746 1.71085 5.36746 3.8213V4.54395H4.64479C2.53434 4.54395 0.823487 6.25481 0.823486 8.36526C0.823486 10.4757 2.53434 12.1866 4.64479 12.1866H13.002V12.1785H13.0101V3.82131Z"/>
</mask>
<path d="M5.36746 4.54395V5.54395H6.36746V4.54395H5.36746ZM0.823486 8.36526H-0.176514H0.823486ZM13.002 12.1866V13.1866H14.002V12.1866H13.002ZM13.002 12.1785V11.1785H12.002V12.1785H13.002ZM13.0101 12.1785V13.1785H14.0101V12.1785H13.0101ZM9.18876 1C10.7469 1 12.0101 2.26314 12.0101 3.82131H14.0101C14.0101 1.15857 11.8515 -1 9.18876 -1V1ZM6.36746 3.8213C6.36746 2.26314 7.6306 1 9.18876 1V-1C6.52603 -1 4.36746 1.15857 4.36746 3.8213H6.36746ZM6.36746 4.54395V3.8213H4.36746V4.54395H6.36746ZM4.64479 5.54395H5.36746V3.54395H4.64479V5.54395ZM1.82349 8.36526C1.82349 6.8071 3.08663 5.54395 4.64479 5.54395V3.54395C1.98206 3.54395 -0.176513 5.70252 -0.176514 8.36526H1.82349ZM4.64479 11.1866C3.08663 11.1866 1.82349 9.92342 1.82349 8.36526H-0.176514C-0.176514 11.028 1.98205 13.1866 4.64479 13.1866V11.1866ZM13.002 11.1866H4.64479V13.1866H13.002V11.1866ZM12.002 12.1785V12.1866H14.002V12.1785H12.002ZM13.0101 11.1785H13.002V13.1785H13.0101V11.1785ZM12.0101 3.82131V12.1785H14.0101V3.82131H12.0101Z" fill="white" mask="url(#path-3-inside-1)"/>
<mask id="path-5-inside-2" fill="white">
<path fill-rule="evenodd" clip-rule="evenodd" d="M14.0486 21.5905C14.0486 23.7009 15.7595 25.4118 17.87 25.4118C19.9804 25.4118 21.6913 23.7009 21.6913 21.5905L21.6913 20.8678L22.4139 20.8678C24.5244 20.8678 26.2352 19.157 26.2352 17.0465C26.2352 14.9361 24.5244 13.2252 22.4139 13.2252L14.0567 13.2252L14.0567 13.2332L14.0486 13.2332L14.0486 21.5905Z"/>
</mask>
<path d="M21.6913 20.8678L21.6913 19.8678L20.6913 19.8678L20.6913 20.8678L21.6913 20.8678ZM22.4139 20.8678L22.4139 21.8678L22.4139 20.8678ZM14.0567 13.2252L14.0567 12.2252L13.0567 12.2252L13.0567 13.2252L14.0567 13.2252ZM14.0567 13.2332L14.0567 14.2332L15.0567 14.2332L15.0567 13.2332L14.0567 13.2332ZM14.0486 13.2332L14.0486 12.2332L13.0486 12.2332L13.0486 13.2332L14.0486 13.2332ZM17.87 24.4118C16.3118 24.4118 15.0486 23.1486 15.0486 21.5905L13.0486 21.5905C13.0486 24.2532 15.2072 26.4118 17.87 26.4118L17.87 24.4118ZM20.6913 21.5905C20.6913 23.1486 19.4281 24.4118 17.87 24.4118L17.87 26.4118C20.5327 26.4118 22.6913 24.2532 22.6913 21.5905L20.6913 21.5905ZM20.6913 20.8678L20.6913 21.5905L22.6913 21.5905L22.6913 20.8678L20.6913 20.8678ZM22.4139 19.8678L21.6913 19.8678L21.6913 21.8678L22.4139 21.8678L22.4139 19.8678ZM25.2352 17.0465C25.2352 18.6047 23.9721 19.8678 22.4139 19.8678L22.4139 21.8678C25.0767 21.8678 27.2352 19.7092 27.2352 17.0465L25.2352 17.0465ZM22.4139 14.2252C23.9721 14.2252 25.2352 15.4883 25.2352 17.0465L27.2352 17.0465C27.2352 14.3838 25.0767 12.2252 22.4139 12.2252L22.4139 14.2252ZM14.0567 14.2252L22.4139 14.2252L22.4139 12.2252L14.0567 12.2252L14.0567 14.2252ZM15.0567 13.2332L15.0567 13.2252L13.0567 13.2252L13.0567 13.2332L15.0567 13.2332ZM14.0486 14.2332L14.0567 14.2332L14.0567 12.2332L14.0486 12.2332L14.0486 14.2332ZM15.0486 21.5905L15.0486 13.2332L13.0486 13.2332L13.0486 21.5905L15.0486 21.5905Z" fill="white" mask="url(#path-5-inside-2)"/>
</svg>
